<svg xmlns="http://www.w3.org/2000/svg" viewBox="0 0 800 360" font-family="-apple-system, Segoe UI, Roboto, Helvetica, Arial, sans-serif">
  <rect width="800" height="360" fill="#ffffff"/>
  <text x="400" y="32" text-anchor="middle" font-size="17" font-weight="700" fill="#1f2328">Recorded classification result — EfficientNet-B0 on RIM-ONE</text>
  <text x="400" y="53" text-anchor="middle" font-size="12.5" fill="#57606a">Held-out test set, hospital-based split &#183; best val AUC 0.9875 @ epoch 29</text>

  <!-- scale gridlines 0..1 over x 180..660 (480px) -->
  <line x1="180" y1="82" x2="180" y2="300" stroke="#57606a" stroke-width="1"/>
  <line x1="420" y1="82" x2="420" y2="300" stroke="#eaeef2" stroke-width="1"/>
  <line x1="660" y1="82" x2="660" y2="300" stroke="#eaeef2" stroke-width="1"/>
  <text x="180" y="316" text-anchor="middle" font-size="10.5" fill="#8b949e">0.0</text>
  <text x="420" y="316" text-anchor="middle" font-size="10.5" fill="#8b949e">0.5</text>
  <text x="660" y="316" text-anchor="middle" font-size="10.5" fill="#8b949e">1.0</text>

  <!-- Test AUC: 0.937 -> 449.8px -->
  <rect x="180" y="92" width="450" height="38" rx="3" fill="#1f6feb"/>
  <text x="172" y="115" text-anchor="end" font-size="13" font-weight="700" fill="#1f2328">Test AUC</text>
  <text x="640" y="115" font-size="13" font-weight="700" fill="#1f2328">0.937</text>

  <!-- Specificity: 0.917 -> 440.2px -->
  <rect x="180" y="142" width="440" height="38" rx="3" fill="#57606a"/>
  <text x="172" y="165" text-anchor="end" font-size="13" font-weight="700" fill="#1f2328">Specificity</text>
  <text x="630" y="165" font-size="13" font-weight="700" fill="#1f2328">0.917</text>

  <!-- Accuracy: 0.765 -> 367.2px -->
  <rect x="180" y="192" width="367" height="38" rx="3" fill="#57606a"/>
  <text x="172" y="215" text-anchor="end" font-size="13" font-weight="700" fill="#1f2328">Accuracy</text>
  <text x="557" y="215" font-size="13" font-weight="700" fill="#1f2328">0.765</text>

  <!-- Sensitivity: 0.744 -> 357.1px -->
  <rect x="180" y="242" width="357" height="38" rx="3" fill="#57606a"/>
  <text x="172" y="265" text-anchor="end" font-size="13" font-weight="700" fill="#1f2328">Sensitivity</text>
  <text x="547" y="265" font-size="13" font-weight="700" fill="#1f2328">0.744</text>

  <text x="180" y="342" font-size="11" fill="#8b949e">Source: training_history_v1.json (test_metrics) &#183; single run &#183; no ROC (per-sample scores not stored)</text>
</svg>
